<svg xmlns="http://www.w3.org/2000/svg" xmlns:xlink="http://www.w3.org/1999/xlink" width="1364" height="1364" viewBox="0 0 1364 1364" fill="none">
<g  clip-path="url(#clip-path-SlO0D22N2jNYSDlxTa8tX)">
<path d="M131.37 642.813L129.389 665.448C129.004 665.415 128.457 665.383 127.748 665.345C125.89 665.264 124.645 665.196 123.994 665.137C115.947 664.433 109.913 661.584 105.866 656.585C101.821 651.599 100.163 644.915 100.895 636.537C101.305 631.846 102.363 627.737 104.056 624.183C105.762 620.638 108.123 617.608 111.147 615.095C114.145 612.635 117.562 610.835 121.416 609.723C125.262 608.598 129.309 608.227 133.545 608.598C137.864 608.973 141.783 610.055 145.288 611.855C148.811 613.638 151.831 616.091 154.363 619.225C156.852 622.248 158.644 625.694 159.755 629.579C160.851 633.446 161.222 637.519 160.849 641.781C160.454 646.284 159.277 650.237 157.324 653.651C155.377 657.052 152.593 660.003 148.969 662.491L144.445 655.248C146.853 653.511 148.709 651.486 150.012 649.171C151.317 646.841 152.099 644.183 152.362 641.187C152.902 635.007 151.358 629.782 147.731 625.516C144.105 621.254 139.118 618.844 132.778 618.289C126.315 617.723 120.909 619.225 116.555 622.789C112.192 626.355 109.733 631.254 109.189 637.489C108.725 642.805 109.597 647.083 111.797 650.338C114.008 653.607 117.232 655.416 121.507 655.79L122.322 655.864L123.522 642.126L131.37 642.814L131.37 642.813ZM345.284 289.286C346.648 288.781 349.864 287.623 352.774 288.271C356.071 289.006 361.69 287.306 364.909 288.57C367.86 289.73 369.945 294.272 369.837 296.645C369.767 298.156 367.133 301.241 365.804 301.629C365.52 301.711 363.264 303.164 362.028 302.767C357.828 301.414 355.539 297.858 352.064 295.764C349.734 294.36 345.021 295.11 343.241 293.601C343.098 293.48 340.237 292.055 341.709 290.754C342.106 290.402 344.135 289.712 345.283 289.285L345.284 289.286ZM279.488 221.478C279.747 221.673 280.275 222.575 280.703 223.273C282.534 228.985 284.162 233.574 286.903 238.886C288.338 241.671 290.347 245.502 291.234 248.922C291.785 251.04 292.975 252.497 293.727 253.032C295.119 252.399 294.492 251.511 295.112 250.31C296.105 248.387 297.011 245.343 297.744 243.323C298.279 241.838 300.861 235.633 300.902 234.077C300.963 231.916 301.637 231.714 300.427 229.941C300.059 229.401 298.639 229.414 298.038 229.416C296.87 229.421 295.341 230.696 294.329 230.223C293.746 229.952 292.883 229.013 292.534 228.305C292.261 227.752 292.359 227.004 292.727 226.25C292.856 225.986 293.772 225.463 293.985 225.253C296.105 225.664 303.452 222.717 304.783 221.973C304.854 221.932 305.329 221.591 305.511 221.507C305.769 221.386 307.152 221.477 307.566 221.435C309.361 221.262 309.304 224.635 309.497 225.209C310.195 227.295 308.604 230.128 308.389 232.043C307.65 238.739 304.216 245.866 301.814 252.214C300.535 255.616 296.221 262.468 298.734 266.08C300.258 268.27 304.385 279.098 304.404 279.126C306.119 281.57 309.185 287.16 308.812 290.121C307.81 298.043 313.186 303.178 314.368 310.061C314.507 310.865 314.94 310.764 315.298 311.121C316.401 310.397 316.752 309.365 317.17 307.958C318.026 305.066 319.277 302.198 320.173 299.306C322.527 291.703 318.744 291.246 315.1 286.589C313.34 282.356 308.325 278.445 305.456 275.013C304.68 274.087 302.043 269.903 303.116 268.588C304.907 266.391 306.446 266.663 307.155 266.654C307.539 266.65 311.012 265.006 312.655 264.98C314.43 264.954 319.713 265.013 320.94 264.23C321.182 264.074 321.387 263.708 321.668 263.764C322.416 263.912 323.918 264.411 323.991 265.414C324.011 265.669 324.215 267.083 324.263 267.137C325.7 268.812 325.964 277.262 325.817 278.471C325.622 280.071 325.629 286.294 326.172 287.155C325.685 287.649 331.026 293.561 337.3 299.327C341.326 303.027 346.115 307.311 348.894 310.231C350.069 311.464 350.594 312.588 351.235 313.352C352.925 315.368 358.199 320.337 354.518 323.808C352.992 325.49 351.73 326.822 350.367 327.101C346.274 327.94 342.718 323.143 340.055 320.58C339.099 319.659 335.639 320.051 335.016 320.944C333.019 323.817 332.677 330.193 335.055 332.98C336.408 334.569 341.221 337.414 341.366 339.69C341.42 340.559 341.204 342.881 340.514 343.341C333.805 347.8 332.79 345.216 329.505 342.573C327.773 341.179 326.525 339.66 326.904 336.946C326.913 336.889 328.345 332.449 328.417 332.235C330.134 327.006 330.128 321.556 334.598 317.643C340.459 313.437 329.749 303.534 326.13 299.674C326.109 299.652 324.951 298.973 324.416 298.629C323.295 299.756 323.31 301.859 323.234 303.407C323.056 306.977 321.146 310.175 320.808 313.692C320.423 317.689 317.44 325.253 312.276 320.809C309.971 318.827 309.46 315.539 308.74 313.061C307.205 307.776 304.892 302.545 302.713 297.628C302.128 296.304 301.406 293.86 300.108 291.669C299.286 290.281 298.643 288.586 298.214 286.703C297.441 283.328 296.455 280.468 295.636 278.885C294.602 276.886 294.416 277.213 293.726 277.762C293.407 278.018 292.672 279.908 292.475 280.22C291.868 281.172 291.517 283.036 290.457 283.628C288.539 284.696 287.299 286.545 284.869 287.068C284.065 287.242 283.167 288.098 281.054 286.531C280.603 286.195 279.372 284.632 279.675 284.099C280.371 282.884 280.75 281.818 281.409 280.569C283.672 276.277 285.908 270.211 287.991 267.244C288.964 265.861 289.166 264.53 289.209 264.118C289.741 262.448 287.863 258.679 285.93 254.913C283.25 249.69 282.507 246.256 280.18 241.409C277.755 236.356 275.268 231.392 271.604 227.941C270.703 227.874 270.746 228.681 268.723 227.685C268.112 227.384 268.136 227.31 268.318 226.714C268.567 225.892 269.311 223.327 269.046 222.533C269.913 221.662 270.849 221.276 271.76 220.869C273.171 219.906 277.898 220.268 279.489 221.478L279.488 221.478ZM310.286 271.218C310.138 272.376 318.402 282.353 320.592 282.529C322.356 282.672 321.581 276.203 321.368 275.366C320.737 272.873 319.335 268.888 316.312 268.617C314.457 268.451 310.62 268.587 310.286 271.218ZM1253.14 424.979C1252.93 425.242 1251.17 426.74 1251.16 426.855C1251.16 427.186 1248.05 428.398 1246.56 428.617C1244.07 428.983 1240.86 429.13 1238.58 428.734C1236.84 428.43 1234.24 427.916 1232.45 427.645C1231.41 427.487 1229.07 426.975 1228.13 427.428C1227.41 427.779 1228.22 428.209 1228.53 428.599C1228.82 428.974 1234.15 432.438 1236.11 433.804C1239.38 436.074 1243.89 438.944 1247.16 441.339C1249.61 443.132 1252.75 444.157 1254.57 446.62C1255.25 447.541 1255.48 448.918 1255.51 450.028C1255.58 452.698 1252.84 458.039 1252.46 458.545C1252.07 459.046 1251.99 459.657 1251.77 460.073C1250.65 462.197 1251.39 462.663 1248.82 463.29C1246.16 463.939 1242.97 462.041 1240.27 461.381C1235.51 460.212 1230 458.669 1225.19 458.144C1222.76 457.88 1220.14 457.355 1217.92 457.03C1216.53 456.828 1215.13 456.391 1213.67 456.269C1209.05 455.879 1205.56 455.35 1201.85 455.348C1199.94 455.348 1197.63 454.592 1195.97 453.64C1194.24 452.647 1194.01 449.148 1193.58 447.344C1193.53 447.119 1192.96 445.221 1192.88 444.968C1192.31 443.106 1191.68 442.299 1189.8 441.855C1181.94 440.006 1173.55 434.886 1167.8 429.423C1164.29 426.088 1160.49 422.518 1156.73 419.425C1155.48 418.393 1154.03 416.405 1152.75 415.666C1151.57 414.979 1150.25 413.429 1149.04 413.236C1148.39 413.134 1148.25 412.781 1147.84 412.613C1147.7 412.555 1146.44 413.177 1146.4 413.333C1146.3 413.688 1145.93 414.583 1145.96 414.961C1146.08 416.383 1147.12 417.825 1147.97 418.943C1150.69 422.522 1154.92 424.976 1158.16 428.083C1160.96 430.76 1163.84 433.025 1166.66 435.677C1169.82 438.65 1173.41 442.341 1176.97 445.077C1180.08 447.481 1183.63 451.309 1187.07 452.809C1190.19 454.173 1189.97 457.773 1192.22 459.568C1192.38 459.696 1192.93 460.344 1193.45 460.999C1195.01 462.935 1193.19 466.498 1190.68 466.165C1189.88 466.059 1189.17 466.28 1188.35 466.167C1185.76 465.813 1183.02 464.4 1180.38 463.907C1177.5 463.374 1175.07 462.184 1172.2 461.636C1168.71 460.972 1164.96 458.076 1162.13 456.156C1160.13 454.801 1158.27 452.678 1156.51 451.448C1154.89 450.312 1153.74 449.772 1152.27 448.521C1151.68 448.009 1149.24 447.814 1148.49 448.15C1147.9 448.419 1147.09 449.316 1146.95 449.561C1146.86 449.707 1146.08 450.272 1145.92 450.517C1145.47 451.211 1146.74 453.094 1147.19 453.478C1149.9 455.851 1152.61 462.206 1154.75 464.667C1156.13 466.26 1157.38 469.067 1158.86 470.429C1159.72 471.222 1159.11 473.08 1158.57 473.85C1158.14 474.474 1157.26 474.622 1156.52 474.617C1154.63 474.607 1150.25 474.298 1149.56 471.825C1149.48 471.528 1149.22 470.127 1149.13 469.848C1148.36 467.337 1145.8 463.101 1144.55 461.298C1143.57 459.889 1142.7 458.857 1141.98 457.454C1141.73 456.966 1140.38 456.028 1139.73 456.767C1139.42 457.122 1138.05 458.501 1137.79 458.731C1136.46 459.912 1129.12 465.806 1126.24 467.374C1123.95 468.618 1120.7 469.694 1118.28 470.676C1113.96 472.451 1109.73 473.015 1105.57 471.781C1104.88 471.58 1102.46 470.757 1101.94 470.548C1099.56 469.579 1098.46 465.499 1098.55 464.276C1098.62 463.108 1098.94 461.882 1099.01 461.228C1099.32 458.676 1098.55 455.723 1098.52 452.836C1098.49 448.182 1099.02 443.731 1098.91 441.042C1098.89 440.369 1099.15 439.668 1100.31 439.005C1101.29 438.444 1102.08 439.484 1102.39 439.766C1103.07 440.392 1103.56 440.352 1104.33 441.41C1104.47 441.615 1104.41 441.923 1104.54 442.145C1104.73 442.48 1105.19 444.059 1105.29 444.397C1105.83 446.285 1106.57 447.714 1107.23 449.645C1107.98 451.859 1108.96 454.367 1109.71 456.413C1110.8 459.396 1113.03 461.815 1115.91 462.725C1118.78 463.634 1125.44 459.471 1128.3 457.737C1128.79 457.436 1132.32 455.281 1132.89 454.746C1134.18 453.551 1134.72 453.631 1135.17 452.127C1135.53 450.904 1135.07 450.442 1134.22 449.647C1131.58 447.203 1127.88 444.54 1125.88 442.912C1124.3 441.63 1120.37 439.131 1118.89 438.376C1117.63 437.731 1112.99 436.252 1112.01 434.826C1111.58 434.171 1111.21 433.096 1110.71 432.5C1109.33 430.835 1110.23 426.77 1110.84 425.335C1111.69 423.392 1112.62 422.341 1114.09 420.863C1114.94 420.002 1116.34 419.406 1117.05 421.038C1117.41 421.897 1118.03 423.116 1119.47 424.882C1121.96 427.952 1124.92 430.532 1127.42 433.499C1129.93 436.504 1133.94 440.929 1137.62 443.868C1137.82 444.026 1139.33 445.773 1139.57 446.02C1139.71 446.176 1139.8 446.732 1140.33 446.831C1140.68 446.896 1141.45 446.508 1141.76 446.322C1142.06 446.135 1144.3 444.563 1144.51 443.601C1144.52 443.525 1144.82 442.461 1144.83 442.433C1145.31 440.781 1145.78 440.506 1146.24 440.183C1146.8 439.791 1148.27 440.116 1148.33 440.731C1148.35 440.985 1149.08 441.87 1149.19 442.014C1149.56 442.485 1152.32 443.964 1152.67 444.13C1156.26 445.858 1165.29 452.103 1169.09 453.387C1169.65 453.575 1171.15 453.077 1172.27 452.646C1173.52 452.16 1173.75 451.752 1173.38 450.418C1172.94 448.84 1166.59 443.38 1164.88 441.842C1163.3 440.412 1153.66 432.894 1153.19 432.577C1152.75 432.282 1149.81 430.177 1149.65 430.073C1147.23 428.552 1145.76 427.16 1143.42 425.627C1139.66 423.178 1136.4 420.422 1132.26 418.553C1130.55 417.786 1128.65 417.198 1126.8 415.425C1125.9 414.569 1125.46 413.901 1124.94 412.924C1123.96 411.073 1124.58 406.093 1125.47 402.913C1126.22 400.212 1131.78 401.105 1133.67 401.367C1134.41 401.469 1141.08 403.879 1144.04 405.02C1147.4 406.314 1150.65 409.442 1153.56 411.51C1158.03 414.697 1161.77 419.419 1165.72 423.1C1170.14 427.223 1175.27 430.684 1180.42 433.713C1182.3 434.82 1184.99 436.702 1187.77 437.574C1189.91 438.248 1190.75 439.92 1193.14 438.573C1194.33 437.908 1195.11 434.261 1195.66 433.167C1195.82 432.879 1195.7 432.203 1195.52 432.096C1194.66 431.591 1194.24 431.697 1193.73 431.524C1189.55 430.113 1188 428.465 1186.89 425.174C1186.41 423.733 1187 423.583 1187.98 422.651C1188.36 422.285 1189.64 421.977 1189.88 422.042C1190.1 422.1 1190.3 422.562 1190.43 422.84C1191.24 424.569 1192.9 425.079 1194.3 426.126C1195.01 426.655 1195.18 425.453 1194.01 424.708C1193.42 424.333 1193.12 422.684 1192.89 422.095C1192.74 421.703 1192.73 420.135 1193.57 420.777C1194.14 421.212 1194.46 421.447 1194.89 421.958C1195.53 422.702 1196.86 424.13 1197.85 423.577C1199.4 422.724 1200.47 422.684 1201.48 423.881C1203.41 426.168 1201.81 427.716 1205.3 428.945C1206.52 429.378 1210.06 424.529 1208.95 423.265C1208.09 422.29 1205.14 422.864 1204.1 422.765C1200.85 422.448 1199.35 419.654 1196.79 417.956C1195.83 417.323 1194.71 415.908 1193.48 415.765C1191.5 415.531 1187.89 417.772 1187.28 418.108C1185.89 418.864 1184.32 420.742 1182.55 420.54C1181.71 420.447 1180.41 420.995 1179.5 421.123C1178.69 421.236 1176.65 420.063 1176.99 419.105C1177.23 418.435 1177.21 417.587 1177.48 416.631C1177.88 415.151 1179.32 413.989 1179.64 413.239C1179.8 412.836 1179.25 412.057 1179 411.758C1178.11 410.703 1175.03 411.571 1173.98 411.838C1172.16 412.311 1169.2 414.24 1167.15 414.145C1165.01 414.047 1162.29 414.828 1161.53 413.046C1161.27 412.443 1160.99 410.334 1161.22 409.74C1161.53 408.921 1162.57 406.378 1163.2 405.636C1164.37 404.24 1167.93 402.623 1169.67 401.737C1171.1 401.004 1171.79 399.443 1172.85 398.83C1174.61 397.816 1176.73 396.437 1178.1 394.943C1180.39 392.435 1187.24 388.422 1188.87 386.421C1189.22 386.001 1190.4 385.333 1191.08 385.79C1191.37 385.995 1192.61 387.62 1192.51 388.676C1192.45 389.363 1192.37 390.569 1192.36 391.214C1192.34 392.866 1192.5 396.059 1191.15 398.015C1189.78 399.999 1188.58 400.654 1186.59 401.818C1185.95 402.195 1179.98 408.196 1183.54 408.169C1185.73 408.151 1184.84 408.262 1186.89 406.84C1187.33 406.537 1188.46 406.246 1189.1 405.997C1190.14 405.594 1194.97 403.181 1196.27 402.522C1196.96 402.173 1200.79 401.014 1203.74 398.404C1206.23 396.199 1209.06 394.339 1210.89 392.874C1212.48 391.596 1213.49 390.781 1215.03 389.048C1215.9 388.055 1216.22 386.643 1216.86 385.382C1217.23 384.626 1217.24 383.966 1217.97 383.156C1218.73 382.306 1218.09 382.059 1219.85 382.25C1220.31 382.299 1220.33 382.672 1220.51 383.097C1221.04 384.316 1222.33 384.344 1222.52 386.356C1222.58 386.912 1221.61 391.057 1221.41 391.467C1220.37 393.677 1219.95 396.683 1217.7 398.924C1214.5 402.124 1211.72 406.282 1207.67 408.467C1206.16 409.28 1203.89 410.368 1202.57 411.472C1201.99 411.951 1202.46 414.361 1202.85 414.543C1203.74 414.953 1204.94 415.56 1205.87 415.827C1206.52 416.016 1209.53 416.759 1209.97 416.753C1211.97 416.724 1211.74 417.828 1213.38 416.531C1214.08 415.98 1213.92 414.536 1214.02 413.683C1214.22 412.02 1213.54 409.531 1213.87 407.565C1213.91 407.352 1214.68 407.099 1214.71 407.105C1215.64 407.327 1216.59 407.92 1217.48 408.289C1218.16 408.573 1218.43 409.783 1218.71 410.247C1219.66 411.764 1220.53 418.015 1223.79 419.2C1224.8 419.566 1225.96 419.688 1226.9 419.716C1233.45 419.918 1239.94 420.234 1247.45 416.547C1248.78 415.892 1251.77 415.752 1253.37 415.612C1255.57 415.422 1255.78 417.602 1255.97 418.103C1256.48 419.413 1253.93 424.035 1253.14 424.978L1253.14 424.979ZM1202.16 433.896C1201.05 433.8 1198.87 435.955 1198.2 436.926C1197.48 437.971 1197.91 438.379 1197.89 439.329C1197.88 439.638 1197.81 440.154 1198.16 440.447C1198.43 440.678 1198.75 440.724 1199.1 440.847C1199.96 441.157 1203.31 441.099 1204.15 440.464C1205.07 439.755 1205.64 437.969 1205.85 437.47C1206.44 436.031 1203.28 433.991 1202.16 433.896ZM1231.42 436.326C1229.54 435.187 1223.54 431.757 1221.81 429.512C1221.7 429.364 1219.72 428.428 1219.5 428.441C1219.19 428.459 1218.91 428.663 1218.63 428.815C1218.6 428.83 1218.69 428.886 1218.67 428.901C1217.01 429.773 1215.79 432.916 1214.36 434.245C1213.12 435.394 1211.48 436.66 1212.05 438.733C1212.58 440.682 1211.98 441.549 1211.52 442.774C1210.87 444.48 1206.56 445.926 1204.73 445.467C1204.52 445.412 1203.22 444.979 1203.19 444.992C1202.52 445.327 1201.39 445.054 1200.92 445.449C1199.74 446.427 1201.71 446.657 1202.37 446.683C1204.26 446.757 1206 447.322 1207.84 447.435C1211.28 447.641 1214.9 448.415 1218.55 448.625C1220.16 448.721 1221.25 449.184 1222.63 449.251C1227.17 449.475 1230.34 449.934 1234.18 450.494C1236.78 450.876 1239.38 449.805 1241.12 450.103C1242.6 450.36 1242.89 449.462 1244.36 448.514C1244.42 448.478 1244.3 448.338 1244.36 448.302C1244.79 448.061 1244.63 447.798 1244.56 447.295C1244.53 447.163 1243.67 445.678 1243.52 445.578C1239.36 442.916 1235.65 438.884 1231.42 436.326L1231.42 436.326ZM168.831 381.597C170.936 380.814 170.656 379.806 171.164 377.409C171.669 375.011 170.604 373.498 170.676 373.47C170.747 373.442 169.93 371.484 169.752 371.41C170.169 367.322 175.241 367.32 178.168 367.831C179.172 368.733 179.456 370.47 183.878 376.314C184.995 377.714 192.569 388.491 194.795 385.072C195.779 381.656 194.41 380.626 193.345 377.223C192.905 375.812 196.38 371.716 197.743 374.161C198.088 375.15 199.913 379.928 199.792 381.341C199.58 383.81 199.075 391.471 199.508 392.8C199.721 393.453 202.307 400.782 202.584 401.093C205.266 404.102 205.576 404.979 206.111 408.153C206.426 410.011 207.646 411.194 207.724 411.322C209.232 413.169 210.622 414.197 211.288 412.523C211.722 411.432 211.234 408.272 210.815 405.824C211.043 404.112 210.705 402.38 212.194 401.58C212.543 401.393 213.135 401.068 213.972 401.714C214.742 402.72 216.638 405.627 217.681 408.59C220.942 413.167 223.459 412.415 225.156 414.717C225.221 414.806 228.049 423.444 230.07 420.19C231.076 418.946 229.96 417.763 229.723 416.572C227.879 412.653 229.206 405.883 229.24 400.611C229.273 395.354 239.284 390.704 243.398 394.309C245.163 395.859 246.487 398.734 247.558 400.828C249.318 402.931 251.575 406.155 252.972 408.27C254.255 410.216 255.512 421.472 254.43 423.078C253.921 423.832 253.604 427.923 254.053 428.951C254.477 429.918 258.7 431.093 260.127 430.332C261.599 428.411 262.652 426.378 264.646 424.299C266.602 422.25 270.755 418.116 273.545 417.366C274.213 417.184 276.581 416.005 277.641 416.601C280.658 418.301 282.16 421.144 282.498 425.144C282.757 428.203 281.675 430.008 278.77 430.964C278.622 431.014 276.017 431.11 275.856 431.092C273.324 430.837 269.164 432.785 266.979 434.136C265.552 435.018 264.833 437.695 264.505 439.291C263.484 444.305 265.957 450.54 266.478 453.595C266.679 454.769 267.842 455.611 267.603 456.816C267.351 458.071 266.906 459.491 265.951 460.325C264.657 461.456 264.055 458.351 263.768 457.687C263.317 456.642 256.4 444.689 255.234 443.438C252.367 440.37 248.698 432.173 244.245 432.165C243.785 432.163 241.409 432.677 241.043 432.991C240.362 433.568 239.567 434.986 239.941 435.909C240.386 437.006 241.443 439.118 242.144 439.985C242.978 441.021 241.801 442.216 241.064 442.606C240.55 442.881 239.473 443.05 238.578 442.193C236.974 440.663 232.841 439.061 231.602 436.735C228.97 431.801 224.734 426.039 221.658 421.272C220.913 420.115 220.097 418.805 218.4 418.75C217.597 418.724 217.454 418.749 217.443 419.583C217.413 422.024 219.619 427.215 220.933 429.709C221.05 432.616 219.279 432.921 216.943 432.076C217.003 431.926 210.927 423.632 210.597 422.893C209.886 421.293 207.016 420.04 205.551 419.177C205.156 419.496 204.807 419.543 204.524 420.185C204.552 420.196 204.582 420.209 204.61 420.219C204.558 420.471 205.013 423.213 205.293 423.77C206.215 426.569 207.608 431.33 210.515 432.669C211.731 433.229 216.566 436.17 216.01 437.993C215.74 438.887 214.603 439.489 214.593 440.38C214.577 441.718 214.749 442.184 215.126 443.053C217.613 448.798 221.898 453.179 224.895 458.525C228.118 464.27 242.181 478.643 247.828 480.243C250.644 481.04 254.052 484.256 256.331 485.894C257.077 486.431 258.594 488.201 258.807 489.062C258.917 489.504 258.167 491.188 257.764 491.594C255.796 493.569 252.078 494.315 247.175 493.974C242.271 493.635 224.697 480.603 219.942 476.31C212.844 471.063 207.353 463.217 200.338 457.623C198.819 456.412 194.171 452.232 192.363 454.157C191.568 455.003 188.689 452.766 189.499 452.417C190.904 451.814 192.708 451.004 194.049 450.305C199.551 447.446 215.721 465.3 221.854 465.41C222.321 465.419 222.997 465.337 222.864 464.944C222.595 464.16 222.101 463.77 221.904 462.812C221.828 462.443 219.337 458.361 216.901 455.702C214.802 452.031 213.376 447.661 212.789 446.993C212.268 446.224 211.403 444.485 211.472 443.487C210.62 442.549 208.528 441.875 202.821 441.424C196.599 440.934 192.363 437.281 190.037 434.101C189.226 432.993 188.276 432.171 187.437 431.638C187.442 431.241 187.481 431.133 187.674 430.816C187.915 430.744 188.112 430.586 188.255 430.61C190.715 431.211 195.874 430.864 193.709 428.152C192.822 427.521 191.359 425.783 190.425 425.171C190.138 424.985 190.164 424.358 190.206 424.023C190.234 424.036 190.206 423.934 190.31 423.869C190.551 423.494 191.65 423.288 192.05 423.422C194.533 424.255 195.853 426.373 198.077 427.598C199.418 428.151 201.608 429.083 202.692 427.605C200.782 423.139 199.414 418.168 197.78 413.583C197.006 411.418 196.384 406.395 195.764 403.351C195.564 402.38 195.563 401.549 195.302 401.155C193.317 398.17 189.995 396.031 187.804 393.314C186.065 390.134 176.387 381.621 175.081 379.919C173.283 379.041 171.872 382.051 171.79 383.383C171.68 385.126 171.72 386.535 172.559 388.399C176.04 396.128 177.961 402.076 180.103 403.364C180.931 404.047 181.981 405.996 182.607 407.435C183.559 409.614 185.051 409.484 185.898 411.396C186.693 412.679 187.596 417.261 184.732 416.531C184.742 416.503 183.455 416.212 183.236 415.644C182.837 414.467 179.579 410.335 177.742 405.217C177.381 404.211 176.504 404.547 175.87 405.407C173.583 407.955 179.899 423.652 180.175 424.188C181.793 428.456 183.199 435.684 182.172 438.461C180.761 442.278 178.217 447.197 174.151 449.014C172.708 449.698 171.424 449.781 171.123 449.191C170.003 446.817 172.161 445.859 172.647 444.69C173.885 441.714 173.927 441.072 173.705 437.313C173.215 429.046 168.236 419.035 166.46 410.212C165.127 407.222 162.259 396.868 161.797 393.68C161.721 392.89 161.58 391.922 161.578 390.092C161.348 388.537 158.302 385.758 160.054 384.486C162.395 380.819 166.724 382.381 168.831 381.596L168.831 381.597ZM236.198 418.22C238.797 422.045 236.583 425.433 240.772 428.688C243.323 428.199 245.014 424.717 247.197 425.001C248.376 425.158 249.742 425.78 250.932 425.112C253.126 423.881 250.761 417.365 249.685 416.116C248.669 414.932 248.142 410.351 241.402 405.343C240.535 404.698 238.876 404.266 237.847 404.797C236.767 405.361 236.295 406.239 235.523 407.21C233.951 409.213 234.795 416.044 236.196 418.22L236.198 418.22ZM133.673 384.308C136.19 381.881 138.728 380.677 141.987 380.905C143.962 380.476 146.628 381.731 146.917 383.916C147.056 386.582 146.355 388.245 146.975 391.005C147.541 394.35 147.275 396.558 148.796 399.596C149.518 402.711 146.409 407.448 145.636 405.618C145.054 405.378 144.844 399.127 144.563 398.342C143.949 397.675 143.789 394.709 141.439 395.578C140.133 396.061 139.201 396.326 138.187 396.415C133.991 397.654 131.787 400.451 128.36 403.605C127.001 404.854 125.939 405.929 124.283 403.866C122.947 402.203 124.712 398.904 125.705 397.195C128.051 393.161 129.421 388.411 133.674 384.308L133.673 384.308ZM482.711 161.229C484.537 161.762 489.115 163.34 490.166 164.901C491.801 167.331 495.049 169.426 492.984 172.792C491.394 175.392 485.15 171.455 483.145 171.828C480.691 172.278 479.746 174.631 477.977 175.584C477.363 175.92 471.402 179.053 471.844 176.31C471.973 175.524 474.352 172.907 474.407 172.486C474.578 171.162 474.268 170.479 473.093 169.361C471.48 169.185 469.534 168.979 468.653 168.292C467.134 167.105 465.766 166.803 465.859 166.362C466.004 165.668 467.548 164.632 468.153 164.522C469.633 164.25 471.76 163.171 473.18 162.584C475.37 161.66 480.284 160.522 482.712 161.229L482.711 161.229ZM453.107 159.431C453.424 159.726 454.233 160.253 454.517 161.207C455.819 165.562 458.024 170.611 459.773 174.786C464.159 185.246 468.657 196.031 473.37 206.454C474.952 209.951 475.5 210.915 476.459 213.515C477.203 215.53 477.178 217.146 476.433 219.064C475.31 221.961 472.604 218.789 471.241 218.399C470.367 218.148 468.314 216.919 467.46 216.403C465.875 215.449 465.38 213.236 465.203 211.506C465.097 210.476 464.485 209.574 464.11 208.614C460.531 199.454 456.249 185.487 451.475 177.328C450.422 175.525 451.508 174.885 449.763 174.316C449.245 174.568 448.851 176.085 448.787 176.54C448.708 177.135 447.745 180.755 447.502 181.08C446.743 182.101 446.535 183.072 445.652 184.044C444.67 185.123 443.361 183.597 443.842 182.867C444.471 181.915 444.534 180.781 444.719 180.263C445.943 176.803 446.199 172.897 446.764 169.287C447.103 167.139 446.491 163.943 446.819 162.161C446.938 161.515 446.916 161.441 447.205 160.841C447.439 160.349 448.332 158.541 448.802 158.207C449.661 157.601 450.669 157.969 451.408 158.274C451.868 158.463 452.386 158.762 453.106 159.432L453.107 159.431ZM419.706 148.402C423.445 150.464 425.853 157.691 426.409 161.489C428.626 176.69 427.885 181.938 425.637 191.683C425.44 192.541 424.982 193.239 425.411 194.005C425.654 194.434 427.587 194.603 428.108 194.555C429.114 194.464 434.167 192.763 434.739 191.427C434.895 191.063 435.648 191.041 435.994 191.064C436.948 191.129 438.576 192.977 439.892 193.375C441.21 193.774 445.96 211.149 446.534 212.442C447.395 214.366 446.924 216.428 448.425 218.212C448.906 218.216 449.401 217.984 449.873 218.225C450.348 218.468 450.601 219.638 450.474 220.301C450.157 221.938 449.819 223.891 448.932 225.376C448.201 225.619 448.317 230.306 448.373 230.869C448.737 234.537 446.924 243.627 443.904 246.89C441.615 249.365 440.59 251.934 438.285 251.882C437.202 251.858 435.402 248.96 435.225 247.983C434.997 246.732 431.466 243.395 430.096 243.112C429.82 243.055 429.595 243.285 429.39 243.146C428.645 242.641 428.887 242.274 429.198 241.696C429.421 241.276 430.691 241.117 430.899 241.174C432.278 241.559 433.535 241.525 434.946 241.877C436.023 242.146 436.773 239.91 437.209 239.126C438.474 236.851 441.907 228.716 440.945 225.464C440.804 221.859 431.874 229.034 429.451 228.496C429.085 228.417 427.378 228.089 426.726 227.766C424.54 226.688 422.024 226.161 420.01 224.763C419.37 224.319 419.318 223.738 419.613 222.897C419.871 222.16 420.122 221.609 420.547 220.588C422.271 216.432 426.643 218.593 429.769 217.334C430.372 217.091 431.467 217.403 431.675 216.807C432.045 215.738 432.011 214.524 431.98 213.414C431.969 212.963 431.897 212.12 432.346 211.639C433.345 210.563 432.91 209.496 434.182 209.919C435.201 210.257 434.861 216.007 434.738 216.753C434.644 217.316 434.877 218.387 435.67 218.664C436.891 219.252 439.336 219.766 440.55 219.168C443.025 217.956 436.249 199.902 435.254 197.968C434.833 197.158 433.633 196.848 432.797 197.108C431.011 197.661 422.102 207.386 421.982 209.178C421.898 210.451 418.49 212.916 417.534 212.426C416.575 211.934 416.192 211.593 415.684 209.779C415.535 209.236 414.854 207.734 414.969 206.834C415.273 204.463 418.187 200.24 417.456 198.003C416.701 195.688 420.022 182.772 419.436 177.369C418.504 168.928 418.86 164.655 414.425 156.753C413.035 154.279 413.111 151.452 411.854 148.74C411.446 147.86 412.84 146.427 413.698 146.398C416.324 146.313 417.407 147.133 419.703 148.4L419.706 148.402ZM591.748 101.546C593.904 103.189 597.183 106.996 594.694 109.797C594.362 110.17 592.49 112.557 592.2 112.934C590.919 114.608 590.137 117.717 589.166 119.64C588.777 120.409 588.665 120.628 588.582 121.24C588.481 122.005 587.268 123.354 586.796 122.38C586.332 121.43 586.234 120.971 585.916 120.457C585.396 119.622 584.934 118.131 585.092 117.121C585.374 115.36 586.401 114.014 585.64 112.51C584.947 111.129 584.6 107.186 582.265 107.422C580.798 107.57 576.804 109.719 575.367 109.498C573.62 109.229 571.968 108.677 571.71 106.715C571.602 105.886 572.788 104.766 573.149 104.033C574.201 101.909 577.602 99.054 579.905 98.7855C583.577 98.3519 588.88 99.3576 591.748 101.547L591.748 101.546ZM644.526 97.1757C643.619 98.4284 642.403 99.1878 641.56 100.297C641.05 100.967 641.093 101.617 640.732 102.127C640.4 102.591 639.116 104.507 639.125 104.93C639.126 105.125 638.476 105.291 638.375 105.524C637.206 108.153 636.187 110.73 635.064 113.402C634.348 115.1 634.355 116.48 633.163 117.853C632.729 118.351 631.938 121.57 632.436 122.015C633.046 122.559 633.689 122.984 634.463 122.906C634.853 122.863 637.097 121.068 638.053 120.717C640.138 119.95 640.391 118.655 642.785 119.184C643.521 119.347 644.165 121.272 644.426 121.735C644.99 122.746 644.158 123.19 643.843 123.901C643.567 124.521 642.982 124.953 642.604 125.514C641.115 127.745 640.842 129.865 639.752 132.188C638.291 135.306 638.655 139.891 637.243 142.663C637.006 143.134 636.635 143.758 636.769 144.341C636.811 144.523 637.585 144.582 637.745 144.555C637.775 144.551 637.702 144.48 637.73 144.465C638.278 144.166 639.613 142.867 640.006 142.303C640.13 142.129 643.273 139.266 643.353 139.214C644.09 138.724 643.912 138.496 644.227 137.659C644.363 137.293 644.965 136.801 645.022 136.777C645.954 136.367 645.789 136.642 646.531 136.809C647.248 136.97 649.173 140.094 648.857 140.656C648.315 141.63 647.47 143.553 646.652 144.405C644.822 146.317 642.354 148.4 640.606 150.283C636.104 155.134 630.423 159.497 626.506 164.834C625.594 166.076 624.054 167.408 623.706 168.962C623.521 169.781 623.547 170.284 623.686 171.129C623.769 171.623 625.357 171.12 625.549 170.999C629.384 168.573 633.605 165.72 636.991 162.262C637.817 161.418 643.531 157.683 644.947 158.037C646.44 158.411 648.26 159.295 649.474 160.395C649.539 160.453 649.905 160.764 649.916 160.791C650.462 162.404 651.236 164.542 649.645 166.01C649.34 166.291 648.971 167.083 648.759 167.47C648.459 168.019 646.772 171.086 646.66 171.296C645.476 173.481 644.657 176.309 643.948 177.665C643.58 178.37 643.062 179.786 643.914 179.74C645.715 179.647 646.29 178.871 647.623 178.283C648.327 177.974 649.127 177.611 649.805 177.83C651.07 178.24 650.479 180.798 649.827 181.4C648.248 182.853 648.344 187.457 646.759 189.614C646.586 189.853 646.74 190.409 646.33 190.438C645.274 190.507 645.417 189.21 644.121 189.016C641.307 188.556 636.572 192.48 633.41 193.07C632.885 193.168 631.395 193.257 631.04 192.955C629.152 191.355 629.456 190.042 630.228 188.01C631.349 185.051 633.824 182.211 634.609 179.202C635.073 177.422 636.328 175.285 636.206 173.485C636.202 173.416 635.994 173.021 635.842 172.982C634.752 172.698 631.643 175.035 630.726 175.61C628.818 176.802 627.181 177.292 624.361 176.939C622.198 176.668 622.952 179.17 623.346 180.492C623.93 182.425 625.538 186.635 625.969 188.429C626.281 189.725 626.574 190.2 626.787 191.68C626.906 192.465 626.505 193.264 626.416 193.998C626.262 195.277 626.111 197.105 624.502 197.228C621.668 197.445 620.006 195.682 618.805 193.462C618.17 192.288 612.839 179.118 611.909 178.249C609.735 176.214 611.922 174.475 613.203 172.569C614.083 171.264 617.841 173.207 619.429 172.109C621.404 170.746 620.211 165.109 618.755 166.295C618.443 166.549 617.148 167.06 616.875 167.453C616.557 167.908 616.509 168.07 616.173 168.32C615.547 168.783 614.511 169.365 613.715 169.382C612.509 169.404 612.045 169.365 611.291 168.37C610.357 167.154 612.141 164.65 612.278 163.344C612.473 161.521 614.229 158.655 613.496 156.628C613.013 155.288 613.457 154.163 613.626 152.845C613.782 151.668 615.031 145.416 613.365 145.555C611.755 145.683 611.404 146.871 610.083 147.318C605.973 148.703 603.764 148.412 600.685 147.359C600.507 147.298 600.319 146.949 600.152 146.977C598.984 147.164 599.008 148.231 598.806 149.08C597.409 154.875 595.77 160.928 594.756 166.766C594.655 167.379 594.611 168.277 594.525 168.78C594.193 170.676 593.913 171.925 593.781 173.978C593.753 174.442 593.963 175.025 594.206 175.414C594.995 176.688 595.613 175.784 596.219 175.648C598.234 175.188 599.211 171.841 599.525 170.025C599.716 168.921 600.058 168.193 600.356 167.068C600.625 166.049 600.597 164.044 601.076 162.879C601.459 161.945 602.474 161.056 603.585 161.552C604.866 162.125 604.795 164.095 604.492 165.353C604.095 166.996 603.568 169.455 603.076 171.039C602.862 171.731 602.448 172.474 601.865 174.53C600.825 178.202 599.576 181.54 597.938 184.957C597.665 185.527 596.796 186.125 596.699 186.57C595.951 190.019 596.406 191.536 595.815 193.769C595.374 195.432 595.298 197.933 594.583 199.425C593.979 200.687 593.227 202.982 592.18 203.677C590.859 204.552 589.103 204.108 587.818 203.453C586.144 202.599 585.778 201.855 584.876 200.418C584.34 199.561 584.635 197.528 584.707 195.408C584.837 191.547 584.573 182.449 584.443 178.374C585.097 171.33 588.78 161.624 589.261 153.941C589.287 153.519 589.316 151.639 589.94 150.069C590.651 148.287 591.069 144.986 589.45 143.661C588.179 142.612 584.407 147.126 583.644 147.812C582.01 149.286 581.951 151.162 579.001 151.023C575.207 150.848 567.538 148.688 565.222 145.579C565.126 145.452 563.607 143.893 563.536 142.753C563.482 141.911 564.956 141.04 565.125 140.988C565.402 140.901 566.234 140.635 566.377 140.594C567.13 140.364 569.02 141.248 569.882 141.333C576.347 141.974 580.854 143.257 586.371 134.669C587.297 133.231 591.722 130.429 593.611 130.093C595.294 129.796 597.401 130.979 598.719 131.981C600.609 133.418 602.399 137.132 601.266 139.46C601.064 139.873 600.806 141.621 600.832 141.974C600.845 142.111 600.756 142.623 601.075 142.877C601.469 143.191 602.571 142.955 603.043 142.835C607.101 141.804 613.481 137.782 616.451 135.174C617.097 134.606 619.115 132.724 619.753 132.373C621.285 131.524 620.865 126.667 621.567 125.681C622.079 124.963 621.938 123.841 622.35 123.013C623.303 121.101 623.108 118.265 623.888 116.366C623.964 116.179 623.764 114.645 623.496 114.55C623.121 114.42 622.679 114.395 622.458 114.532C621.58 115.067 620.041 115.625 619.358 116.264C617.743 117.782 613.589 119.351 611.329 119.468C609.189 119.576 606.807 119.618 604.877 118.553C603.982 118.061 604.079 118.107 602.974 117.268C602.61 116.992 601.545 115.156 602.078 114.688C602.761 114.087 603.325 113.288 604.264 113.107C607.682 112.448 612.95 110.248 615.378 108.08C618.056 105.691 620.694 104.046 623.111 101.354C624.242 100.096 625.597 99.1557 626.794 98.0215C628.414 96.4821 629.478 93.9721 631.078 92.6154C631.739 92.0556 633.738 89.5434 634.409 89.4332C635.994 89.1732 636.536 88.8979 638.45 89.4271C638.908 89.5548 639.588 90.2118 640.768 90.9268C641.938 91.6381 643.014 91.4736 644.503 91.3451C644.984 91.3038 645.84 92.269 646.118 92.5848C646.281 92.7714 646.362 93.4865 646.297 93.6838C646.23 93.8941 646.245 94.3407 646.174 94.6436C646.052 95.1659 644.866 96.697 644.522 97.1711L644.526 97.1757ZM620.326 151.842C620.059 152.83 619.203 154.73 620.166 155.443C622.654 157.277 624.148 155.246 626.422 154.602C628.379 154.049 627.736 152.946 628.41 151.83C629.771 149.573 629.476 145.172 630.198 142.696C630.465 141.786 631.813 137.294 630.441 136.732C629.565 136.375 629.884 134.658 629.346 134.656C629.089 134.654 627.981 134.81 627.922 135.048C627.849 135.352 626.674 135.712 625.681 136.952C625.603 137.05 625.042 138.214 624.977 138.384C624.229 140.29 621.224 148.532 620.327 151.843L620.326 151.842ZM775.287 177.156C774.568 177.675 773.521 179.263 772.909 179.589C771.525 180.328 770.439 180.079 770.133 180.027C769.513 179.923 769.077 179.495 768.756 179.193C767.839 178.325 766.997 177.952 767.043 176.563C767.081 175.572 766.814 173.363 767.334 172.489C768.328 170.816 768.458 169.567 768.603 168.31C768.687 167.525 770.148 162.846 770.163 162.553C770.186 162.179 771.639 156.327 771.762 156.13C772.396 155.111 773.352 151.45 773.735 150.741C774.018 150.221 774.263 149.379 774.477 148.863C776.22 144.654 776.641 140.27 777.375 136.541C777.604 135.381 778.614 132.825 779.004 131.952C780.067 129.609 780.817 126.949 780.908 124.915C780.985 123.328 780.962 121.772 780.931 120.213C780.878 117.772 782.499 115.552 782.354 113.181C782.338 112.981 782.461 111.893 783.271 110.532C784.029 109.272 786.116 108.62 787.241 108.146C788.174 107.754 790.621 109.772 790.95 110.384C791.691 111.763 791.707 112.862 791.034 114.635C790.491 116.053 790.001 118.067 789.344 119.398C788.785 120.517 788.732 121.861 788.457 123.073C787.906 125.51 787.118 127.691 786.346 129.684C785.619 131.603 785.872 132.338 785.849 134.393C785.841 134.824 785.879 135.731 785.826 136.097C785.696 136.966 785.474 138.815 785.16 139.546C784.204 141.752 783.761 143.975 783.218 146.286C782.591 149.002 781.895 155.532 781.092 158.082C779.593 162.858 780.526 166.266 779.471 170.744C779.035 172.63 776.832 176.046 775.287 177.157L775.287 177.156ZM763.451 132.477C763.644 132.628 764.01 133.747 764.21 134.059C765.016 135.331 762.065 145.013 761.589 146.435C761.481 146.752 761.443 147.287 761.099 147.495C759.883 148.232 760.12 149.063 759.539 150.179C757.96 153.202 756.625 157.864 754.676 160.69C753.225 162.793 749.263 170.36 746.939 172.691C746.856 172.774 745.679 173.942 745.606 174.155C745.294 175.064 745.547 175.994 745.153 176.566C744.813 177.058 744.606 177.413 744.073 177.706C742.638 178.497 740.536 178.192 739.241 179.39C739.159 179.468 738.287 180.066 738.123 180.235C736.154 182.242 733.549 184.365 731.524 186.194C731.331 186.368 729.141 187.825 728.878 188C728.273 188.401 726.901 189.19 726.47 189.564C725.434 190.461 723.361 190.894 722.597 190.754C722.156 190.671 721.421 190.543 721.241 190.305C720.89 189.846 720.106 188.244 719.845 188.026C719.305 187.577 719.522 185.423 719.774 184.844C719.856 184.652 720.22 183.923 720.181 183.192C720.133 182.317 721.343 180.418 722.202 180.114C722.705 179.936 723.327 180.112 723.585 181.432C723.702 182.026 726.034 182.151 726.553 181.992C726.839 181.903 727.724 181.617 728.508 181.304C729.278 180.998 730.322 180.22 731.118 179.683C732.267 178.907 733.852 177.064 735.077 176.01C735.369 175.761 735.976 174.411 735.952 173.907C735.929 173.404 735.536 171.633 734.86 171.553C734.608 171.523 732.574 171.609 732.117 171.323C730.754 170.471 728.334 170.235 726.86 169.661C724.59 168.776 724.666 166.515 723.959 165.175C723.673 164.633 723.894 164.156 723.481 163.645C723.075 163.148 724.242 161.982 724.608 161.743C724.938 161.529 725.876 161.423 726.364 161.596C726.852 161.767 728.25 162.14 728.705 162.419C729.898 163.156 730.867 163.277 731.303 162.909C731.84 162.454 733.044 161.779 733.491 161.498C734.275 161.002 736.885 159.75 737.603 160.063C737.818 160.159 737.906 160.299 737.995 160.523C738.254 161.158 738.367 161.688 737.709 163.061C737.505 163.491 736.914 164.598 736.954 165.032C736.989 165.423 738.211 167.387 738.667 167.66C739.177 167.966 739.368 168.135 739.931 168.091C740.165 168.072 740.227 167.941 740.464 167.808C741.463 167.239 742.053 164.761 742.998 163.448C743.289 163.043 744.275 161.365 744.533 160.911C745.855 158.592 749.465 155.776 750.475 152.407C750.993 150.673 751.988 147.994 752.093 146.372C752.149 145.509 752.818 143.493 753.254 142.751C754.187 141.167 753.992 138.906 754.954 137.308C755.26 136.798 754.536 136.438 753.853 136.523C749.821 137.025 746.739 138.472 744.488 140.292C743.07 141.441 741.55 142.66 740.181 143.839C739.504 144.42 736.76 144.635 735.745 144.444C734.592 144.227 733.494 144.259 733.085 143.269C732.266 141.303 732.815 140.396 733.755 138.69C733.813 138.586 734.397 138.077 734.655 137.994C736.449 137.433 737.649 136.059 739.157 135.003C740.824 133.835 743.037 131.973 744.026 130.063C744.249 129.632 744.605 129.139 744.936 128.793C749.138 124.407 751.518 121.6 751.778 116.447C751.867 114.703 751.195 112.081 752.405 109.553C752.483 109.393 753.526 108.81 753.727 108.649C754.458 108.081 755.18 108.166 755.904 107.813C756.419 107.559 760.124 107.839 760.124 107.839C760.872 108.294 762.639 108.42 763.248 109.101C763.798 109.716 764.418 112.495 763.863 112.962C763.72 113.083 762.484 115.48 762.268 115.83C761.317 117.356 760.545 118.682 759.446 120.1C758.692 121.074 758.171 122.346 757.685 123.322C756.447 125.799 756.946 125.75 756.385 126.15C754.932 127.187 754.756 128.953 754.212 130.542C754.125 130.789 753.733 130.987 753.811 131.139C753.911 131.339 754.034 131.537 754.296 131.615C756.984 132.411 761.3 130.796 763.451 132.477ZM811.063 138.185C810.849 137.779 810.168 137.665 809.656 138.016C809.12 138.382 807.591 138.887 807.025 139.728C806.727 140.17 806.551 140.364 806.016 140.497C805.74 140.567 805.427 140.491 805.22 140.636C805.029 140.777 805.021 140.612 804.815 140.753C804.264 141.132 801.113 139.426 801.802 137.878C802.023 137.384 803.889 136.237 804.471 135.979C807.438 134.679 806.077 129.827 804.417 128.095C803.844 127.499 802.337 127.384 801.626 126.61C800.815 125.737 801.832 124.813 802.528 124.378C803.607 123.692 807.3 122.175 808.593 122.736C812.279 124.336 817.181 126.747 818.871 130.916C819.315 132.024 818.963 131.926 819.116 133.172C819.269 134.406 818.053 141.541 817.38 141.872C817.074 142.019 817.059 142.002 816.829 142.246C815.881 143.244 811.338 138.716 811.063 138.184L811.063 138.185ZM933.679 187.241C933.32 188.646 932.677 189.684 932.456 191.329C932.41 191.683 929.083 198.665 928.548 199.53C927.615 201.06 926.345 204.226 925.626 206.751C925.519 207.117 925.29 208.366 924.846 209.305C923.416 212.322 922.124 216.482 920.77 218.028C919.447 219.539 917.711 224.423 916.135 225.992C914.988 227.141 915.21 227.527 914.086 228.336C913.436 228.802 912.633 228.596 912.006 229.214C911.088 230.118 912.059 232.872 912.725 233.811C913.795 235.319 914.545 238.259 914.728 240.058C914.828 241.055 915.31 242.003 915.409 242.978C915.462 243.461 915.646 244.339 915.233 244.656C914.774 245.014 914.262 245.395 913.78 245.811C912.388 247.01 911.738 249.13 910.262 250.071C909.077 250.825 907.463 251.868 906.874 252.397C906.324 252.891 905.49 253.225 905.077 253.485C904.74 253.702 904.48 253.691 903.968 254.127C903.219 254.769 902.714 251.023 902.66 250.737C902.362 249.02 901.406 246.887 901.184 246.471C899.968 244.116 900.787 242.51 900.817 240.277C900.871 237.017 900.45 235.492 900.603 233.324C900.687 232.177 901.238 231.261 901.093 230.339C900.924 229.255 900.068 226.322 899.173 226.311C897.529 226.294 896.795 227.572 895.234 228.271C893.277 229.144 891.525 230.352 889.591 231.184C887.533 232.067 885.178 231.87 883.075 232.647C880.765 233.502 878.142 234.345 875.741 234.754C875.473 234.798 875.175 234.731 874.907 234.77C874.548 234.819 872.789 234.566 871.534 233.575C871.366 233.441 871.29 232.875 871.129 232.452C870.9 231.808 871.114 231.246 871.687 230.85C873.431 229.647 874.792 231.224 876.215 230.932C878.195 230.522 880.184 228.532 882.103 227.719C885.017 226.486 887.747 224.663 890.447 223.291C893.46 221.756 897.376 217.429 898.087 216.142C898.798 214.854 900.052 214.591 899.693 213.479C899.448 212.741 896.473 213.699 896.007 213.801C894.539 214.123 890.309 214.369 889.101 214.349C887.9 214.33 885.109 214.604 884.543 214.77C882.945 215.238 880.344 216.09 878.815 215.463C878.165 215.197 877.102 214.601 876.827 214.201C876.207 213.323 875.764 209.701 875.855 209.276C876.092 208.073 876.352 206.731 877.125 205.732C877.974 204.641 879.327 203.256 879.97 202.526C880.819 201.56 884.138 198.283 885.124 197.171C885.583 196.651 886.256 195.283 886.646 194.909C887.755 193.849 890.218 189.798 890.921 188.545C891.801 186.993 892.948 186.106 893.789 185.139C894.477 184.352 896.55 181.777 897.307 181.04C898.24 180.129 897.995 177.804 899.295 177.076C899.64 176.885 901.314 177.336 901.651 177.576C902.584 178.229 902.821 179.053 902.951 179.647C903.188 180.711 903.196 181.94 903.685 182.901C905 185.513 908.679 185.673 910.92 186.662C911.792 187.051 915.195 186.521 916.457 186.109C917.374 185.809 918.82 186.1 920.013 186.744C920.739 187.136 921.871 188.823 921.496 189.731C920.969 190.988 919.753 192.048 918.613 192.719C917.313 193.488 915.44 194.74 913.933 195.364C913.283 195.632 910.453 196.432 910.622 197.731C910.667 198.069 910.744 198.112 911.142 198.392C911.585 198.704 912.151 198.921 912.663 199.116C913.191 199.32 916.212 201.169 916.311 201.898C916.48 203.064 915.233 203.42 914.591 203.773C913.872 204.172 912.985 204.345 912.304 204.655C911.348 205.087 910.239 205.696 909.352 206.052C908.083 206.564 907.387 207.52 906.339 208.246C905.674 208.706 905.589 208.61 905.689 209.389C905.727 209.697 905.995 210.763 906.308 211.135C906.652 211.548 907.57 211.918 908.136 212.527C909.184 213.664 909.841 214.769 909.291 216.193C909.138 216.594 906.805 219.467 906.798 219.467C906.14 219.415 904.771 222.081 905.306 222.595C905.865 223.126 907.371 225.641 908.213 225.641C909.819 225.645 908.763 222.976 909.62 222.261C911.088 221.031 914.032 213.377 914.95 211.73C915.776 210.244 917.16 207.528 917.902 205.974C919.585 202.44 921.504 197.688 924.188 194.753C925.297 193.533 926.46 188.982 927.286 188.241C928.265 187.373 928.142 186.466 927.806 185.273C927.599 184.56 925.817 183.218 925.144 183.171C921.909 182.956 914.774 180.012 911.547 179.906C911.142 179.893 910.293 180.127 909.956 179.978C909.046 179.575 909.26 179.204 909.046 178.612C908.817 177.974 908.304 176.592 908.243 175.945C908.174 175.18 909.62 174.623 910.232 174.818C910.744 174.98 912.067 175.109 912.74 175.221C917.428 176.013 922.735 176.621 927.171 177.601C928.594 177.911 933.48 180.777 933.748 181.668C934.497 184.18 934.314 184.796 933.679 187.242L933.679 187.241ZM891.036 207.903C891.892 207.409 895.64 208.64 896.634 209.013C896.993 209.152 898.729 209.162 899.433 208.794C901.093 207.923 901.995 206.841 903.57 205.991C904.748 205.358 904.947 204.094 904.435 202.876C904.381 202.739 903.716 202.271 903.586 202.262C903.027 202.223 902.469 202.342 901.995 202.333C900.84 202.322 899.005 201.099 897.315 201.039C895.487 200.972 896.473 198.601 895.54 198.013C895.112 197.744 895.166 197.874 894.829 198.195C894.577 198.442 894.355 198.715 894.011 199.047C892.458 200.53 891.908 202.908 890.34 204.353C889.973 204.696 889.537 204.971 889.139 205.13C888.749 205.288 887.962 206.602 887.916 207.039C887.809 208.273 890.401 208.266 891.036 207.902L891.036 207.903ZM905.521 189.279C904.84 188.953 903.425 188.015 902.683 187.822C902.102 187.671 900.833 188.785 900.733 188.865C899.861 189.59 899.471 191.523 898.959 192.587C898.722 193.088 898.454 193.823 899.035 194.177C899.058 194.194 898.967 194.249 898.997 194.262C900.251 194.862 901.192 194.712 902.064 194.79C904.61 195.02 906.331 194.298 908.251 194.213C909.78 194.146 910.56 192.384 910.254 191.328C910.186 191.103 910.04 190.853 909.987 190.578C909.887 190.045 908.19 189.57 907.838 189.865C907.195 190.394 905.888 189.455 905.521 189.28L905.521 189.279ZM927.745 160.956C927.607 159.547 924.624 158.329 924.058 156.709C923.921 156.318 923.018 155.937 922.537 155.982C919.516 156.262 914.728 159.854 911.983 160.706C908.266 161.862 904.006 163.52 900.114 164.491C898.737 164.832 896.382 165.116 895.77 165.326C895.257 165.499 894.279 165.089 893.368 165.54C892.29 166.076 891.571 166.497 890.845 166.507C888.313 166.549 886.776 165.486 885.553 163.463C884.467 161.677 884.849 160.706 885.086 158.778C885.537 155.067 889.682 152.555 890.944 149.327C890.99 149.204 891.686 148.553 891.977 148.469C893.98 147.877 896.542 142.277 897.108 140.536C897.146 140.415 897.911 139.275 898.125 139.051C898.622 138.531 901.842 139.42 902.247 139.979C902.53 140.359 902.844 140.566 902.974 140.846C903.211 141.319 903.18 142.357 903.18 142.81C903.188 143.276 902.446 144.054 902.217 144.61C901.727 145.826 900.312 148.563 899.318 149.168C898.408 149.723 894.263 154.854 895.426 156.03C898.018 158.658 900.443 158.798 904.052 157.963C908.35 156.968 914.071 154.254 917.038 153.153C917.344 153.038 919.998 152.607 919.141 151.561C918.965 151.345 918.254 150.8 917.397 150.003C916.709 149.363 914.606 147.225 915.103 146.315C915.18 146.177 915.96 145.764 916.143 145.669C918.3 144.533 927.263 147.539 929.182 148.565C930.085 149.046 931.859 149.935 932.203 150.798C932.907 152.581 933.129 154.253 932.723 156.167C932.371 157.832 930.888 161.512 929.366 162.559C928.234 163.33 927.813 161.692 927.737 160.954L927.745 160.956ZM940.899 127.48C941.074 130.865 940.134 132.685 937.434 134.588C934.574 136.602 931.5 136.866 928.984 137.885C928.158 138.221 922.705 140.337 922.246 140.484C919.913 141.241 917.183 139.255 915.853 139.095C914.774 138.967 914.094 138.876 913.222 139.606C912.763 139.988 910.935 140.135 910.423 140.035C909.75 139.908 909.429 139.994 908.702 140.152C908.312 140.237 907.639 140.139 907.685 139.459C907.693 139.303 907.907 139.19 907.884 139.037C907.861 138.791 910.293 136.793 910.943 136.548C912.908 135.806 917.068 135.31 918.529 134.354C920.456 133.088 921.741 131.696 923.86 130.363C924.433 130.003 925.121 129.616 925.726 129.274C929.504 127.124 929.175 124.835 927.186 122.29C926.919 121.956 926.743 121.121 927.24 120.864C929.129 119.886 932.723 119.253 934.436 119.043C936.838 118.75 936.952 119.206 938.421 120.489C938.734 120.764 939.216 121.543 939.201 121.688C938.994 123.179 940.822 126.056 940.899 127.48L940.899 127.48ZM986.433 144.519C986.333 145.137 987.304 146.801 987.496 147.515C987.832 148.812 987.58 150.084 986.769 151.636C986.035 153.058 985.071 154.259 984.33 155.786C983.144 158.216 980.758 163.04 978.808 164.858C977.317 166.257 976.116 168.019 974.663 169.42C971.168 172.786 966.885 174.696 963.207 177.553C960.706 179.498 956.767 180.911 954.68 183.036C953.701 184.031 952.11 184.193 951.055 184.319C949.181 184.536 946.848 183.985 945.556 183.218C943.866 182.207 940.975 177.206 939.943 175.632C939.071 174.303 939.338 171.888 937.817 170.948C937.396 170.689 936.516 170.501 936.012 170.605C934.956 170.824 931.117 172.216 930.001 171.891C927.867 171.273 921.825 170.734 920.755 168.42C920.411 167.651 919.363 166.942 920.38 165.955C920.915 165.428 921.397 165.109 922.162 164.832C923.454 164.359 925.481 164.799 926.972 164.741C928.815 164.667 931.454 164.723 933.71 163.902C935.568 163.221 937.534 161.385 939.04 160.114C940.371 158.991 941.472 157.32 942.696 156.359C944.072 155.282 945.923 154.38 947.498 153.043C948.087 152.54 948.913 151.736 949.005 150.959C949.089 150.262 950.045 147.859 949.112 147.48C947.705 146.908 944.623 147.097 943.468 146.036C942.512 145.153 940.417 143.225 940.661 141.689C940.792 140.894 942.023 138.303 943.04 138.878C944.271 139.574 945.143 140.655 946.267 141.249C947.307 141.795 950.688 142.784 951.827 142.652C957.326 142.017 962.87 143.734 968.262 143.096C970.74 142.803 971.879 143.454 974.12 143.564C975.963 143.653 981.003 143.517 982.418 142.708C982.685 142.552 984.735 141.537 985.209 141.858C985.767 142.235 986.456 144.349 986.433 144.518L986.433 144.519ZM967.306 147.851C965.868 147.663 954.29 146.711 953.938 148.018C953.861 148.324 953.479 148.686 953.624 149.115C954.198 150.843 953.464 152.969 954.565 154.543C955.574 155.989 956.599 155.595 955.796 157.832C955.659 158.217 954.611 159.441 953.609 159.379C953.135 159.351 949.663 162.439 949.234 162.898C948.11 164.088 946.344 166.072 944.608 166.714C944.065 166.917 941.679 168.894 941.946 169.697C942.252 170.659 943.331 172.09 944.179 172.629C947.98 175.068 948.584 174.511 951.445 173.709C955.169 172.66 959.811 168.942 963.046 166.865C963.513 166.569 966.021 165.116 967.107 164.366C968.361 163.503 971.566 159.542 971.703 159.293C973.218 156.618 975.244 154.334 976.537 150.906C976.544 150.875 976.437 150.893 976.452 150.865C976.636 150.426 975.925 149.04 975.573 148.578C974.724 147.479 968.247 147.978 967.306 147.851L967.306 147.851ZM1054.11 304.727C1053.95 305.518 1053.93 306.607 1053.91 307.241C1053.88 307.926 1054.01 309.529 1053.98 310.038C1053.89 312.297 1052.76 317.855 1052.71 320.246C1052.67 322.204 1052.52 324.131 1053.14 325.861C1054.47 329.522 1056.45 332.646 1060.07 334.484C1061.48 335.193 1062.82 336.557 1064.99 337.219C1065.03 337.229 1067.38 338.24 1067.44 338.418C1067.96 339.839 1066.48 340.961 1065.35 341.546C1064.75 341.852 1063.92 341.6 1063.12 341.247C1060.74 340.206 1055.19 337.704 1053.05 337.485C1050.28 337.201 1044.99 336.423 1043.05 334.268C1041.53 332.575 1041.11 330.648 1041.09 328.454C1041.09 327.74 1040.88 326.357 1041.07 325.642C1042.12 321.731 1043.4 317.148 1045.86 313.849C1047.68 311.421 1048.16 309.901 1048.81 308.652C1049.33 307.67 1050.64 306.27 1050.48 304.906C1050.4 304.221 1051.38 302.359 1052.01 301.969C1052.2 301.85 1052.52 301.633 1052.78 301.74C1053.17 301.907 1053.53 301.547 1053.66 302.126C1053.82 302.798 1054.29 303.858 1054.11 304.727ZM1097.9 264.612C1097.72 266.539 1098.2 268.869 1098.66 270.866C1098.76 271.296 1098.64 271.549 1098.39 271.898C1097.91 272.555 1097.02 273.682 1096.21 273.677C1095.24 273.673 1089.16 277.042 1088.12 277.605C1086.34 278.574 1083.02 280.573 1082.82 280.705C1081.16 281.821 1078.26 283.077 1076.02 284.603C1075.76 284.779 1075.02 285.373 1074.69 285.494C1074.18 285.682 1069.96 287.77 1069.76 287.842C1069.03 288.1 1069.23 289.219 1069.77 289.46C1070.43 289.763 1072.37 290.166 1072.87 290.348C1073.63 290.634 1074.8 291.422 1076.39 291.742C1076.93 291.853 1076.69 292.005 1077.23 291.922C1078.2 291.781 1078.72 290.099 1078.79 289.793C1079.02 288.822 1079.41 288.076 1080.1 287.495C1080.28 287.354 1082.83 285.617 1083.16 285.633C1083.6 285.652 1083.65 284.609 1084.23 285.641C1084.38 285.912 1084.67 288.744 1084.37 290.608C1084.15 291.958 1085.24 294.625 1085.8 295.413C1086.17 295.949 1086.77 297.258 1086.66 297.936C1086.49 298.938 1086.49 299.775 1086.48 300.787C1086.47 300.956 1085.94 302.593 1085.13 302.88C1084.15 303.224 1083.67 302.917 1082.79 302.299C1081.99 301.731 1081.12 300.358 1080.15 300.072C1079.01 299.728 1078.43 298.531 1077.42 298.032C1074.96 296.814 1072.26 296.395 1069.65 295.582C1067.89 295.032 1066.3 294.084 1064.42 293.807C1061.79 293.421 1059.4 292.793 1056.8 293.72C1054.42 294.57 1052.41 295.706 1050.5 296.285C1045.33 297.855 1040.62 299.123 1035.44 299.875C1032.46 300.309 1028.59 301.241 1025.7 300.706C1020.71 299.778 1017.67 298.902 1014.74 297.37C1011.43 295.633 1007.74 293.136 1005.44 290.224C1004.66 289.234 1002.81 287.053 1002.39 286.069C1002.06 285.302 1001.61 284.775 1001.72 284.105C1001.78 283.734 1001.76 281.421 1002.42 281.456C1003.16 281.498 1003.36 280.931 1004.18 281.761C1004.99 282.6 1005.58 283.363 1006.58 285.227C1007.14 286.271 1011.42 289.765 1012.17 290.393C1012.76 290.873 1014.09 291.543 1014.72 291.872C1019.59 294.408 1029.73 292.724 1034.14 291.674C1035.59 291.349 1040.55 289.646 1041.84 289.57C1042.34 289.54 1042.93 288.913 1043.06 288.53C1043.15 288.257 1042.51 287.437 1042.28 287.355C1040.04 286.588 1037.04 285.209 1034.31 284.944C1032.45 284.765 1031.87 284.778 1030.22 283.947C1028.12 282.89 1027.58 281.955 1027.53 281.628C1027.43 280.81 1026.24 279.256 1025.67 278.567C1024.85 277.581 1023.89 274.531 1024.3 273.369C1025.34 270.386 1025.93 267.21 1028.43 266.569C1029.07 266.401 1029.8 266.985 1030.6 267.62C1031.59 268.42 1034.34 272.769 1034.87 273.788C1035.66 275.284 1036.24 274.954 1037.66 275.433C1040.2 276.29 1043.03 277.612 1045.58 278.707C1047.37 279.47 1053.38 282.954 1055 282.715C1056.22 282.537 1059.33 280.966 1060.4 280.365C1064.66 277.991 1068.75 275.546 1072.66 272.515C1074.55 271.049 1077.44 269.523 1079.55 267.761C1083.96 264.078 1088.01 261.19 1092.14 257.685C1093.06 256.911 1095.07 256.576 1096.2 256.829C1097.83 257.19 1097.98 257.535 1098.24 259.042C1098.29 259.291 1098.59 260.44 1098.62 260.763C1098.71 261.792 1097.98 263.665 1097.9 264.612L1097.9 264.612ZM157.972 675.599L158.132 684.8L123.312 685.407C118.138 685.498 114.281 686.755 111.715 689.194C109.163 691.635 107.927 695.225 108.009 699.97C108.092 704.705 109.451 708.24 112.087 710.589C114.736 712.937 118.634 714.059 123.811 713.971L158.631 713.362L158.793 722.681L123.103 723.304C115.347 723.441 109.511 721.592 105.592 717.74C101.672 713.887 99.6434 708.012 99.5043 700.136C99.3674 692.248 101.191 686.316 104.961 682.358C108.728 678.401 114.5 676.359 122.282 676.223L157.971 675.6L157.972 675.599ZM126.918 747.832L128.867 763.694L141.132 756.273C141.927 755.837 142.838 755.362 143.872 754.87C144.901 754.383 146.053 753.865 147.334 753.342C146.046 753.176 144.841 753.002 143.72 752.776C142.603 752.564 141.576 752.325 140.618 752.081L126.917 747.832L126.918 747.832ZM107.693 776.169L121.57 767.902L118.799 745.367L103.321 740.557L102.127 730.828L164.699 751.129L108.893 785.928L107.693 776.169ZM111.468 794.638L169.796 782.241L143.073 825.16C142.312 826.353 141.488 827.554 140.601 828.777C139.713 830.009 138.691 831.316 137.538 832.708L176.442 824.441L178.236 832.884L119.946 845.266L147.128 801.483C147.866 800.313 148.661 799.166 149.515 798.034C150.38 796.894 151.282 795.801 152.26 794.745L113.252 803.035L111.468 794.638ZM166.755 879.993L174.528 901.345C174.164 901.475 173.653 901.682 172.996 901.95C171.274 902.653 170.121 903.12 169.503 903.341C161.916 906.102 155.241 906.072 149.462 903.25C143.686 900.443 139.36 895.09 136.483 887.182C134.872 882.762 134.095 878.586 134.127 874.647C134.176 870.716 135.033 866.977 136.715 863.421C138.389 859.918 140.728 856.844 143.75 854.213C146.761 851.568 150.271 849.518 154.266 848.065C158.338 846.581 162.348 845.908 166.287 846.054C170.232 846.184 174.006 847.124 177.624 848.898C181.157 850.589 184.238 852.952 186.884 856.002C189.516 859.046 191.572 862.579 193.037 866.602C194.58 870.846 195.183 874.93 194.858 878.846C194.528 882.754 193.253 886.601 191.021 890.386L183.861 885.737C185.309 883.144 186.135 880.521 186.336 877.875C186.533 875.213 186.12 872.475 185.092 869.646C182.97 863.818 179.362 859.734 174.275 857.402C169.184 855.069 163.65 854.993 157.667 857.172C151.571 859.39 147.305 863.038 144.866 868.109C142.417 873.187 142.263 878.662 144.403 884.543C146.23 889.553 148.829 893.063 152.196 895.09C155.58 897.116 159.27 897.392 163.302 895.923L164.071 895.64L159.354 882.685L166.755 879.993L166.755 879.993ZM164.523 928.793L167.959 935.836C169.845 939.706 171.518 942.49 172.977 944.172C174.44 945.862 176.138 947.109 178.054 947.966C180.677 949.097 183.451 949.541 186.402 949.312C189.355 949.074 192.479 948.157 195.772 946.551C199.054 944.952 201.701 943.056 203.7 940.868C205.701 938.689 207.06 936.226 207.78 933.466C208.287 931.416 208.307 929.236 207.838 926.965C207.366 924.678 206.062 921.375 203.958 917.054L202.482 914.025L201.005 910.997L164.523 928.793ZM152.866 924.105L204.42 898.959L209.931 910.263C213.518 917.62 215.665 922.965 216.393 926.315C217.106 929.68 217.147 932.9 216.517 936.005C215.689 940.096 213.87 943.782 211.049 947.063C208.229 950.344 204.531 953.097 199.963 955.323C195.382 957.563 190.947 958.772 186.661 958.955C182.375 959.146 178.364 958.305 174.604 956.447C171.771 955.032 169.287 953.074 167.138 950.566C164.996 948.034 162.444 943.744 159.476 937.664L158.375 935.408L152.866 924.105ZM232.519 1004.54C234.913 1002.93 236.898 1000.94 238.481 998.601C240.052 996.268 241.135 993.714 241.707 990.93C242.305 988.2 242.324 985.477 241.798 982.762C241.269 980.04 240.231 977.516 238.652 975.176C237.071 972.836 235.125 970.909 232.818 969.402C230.51 967.895 227.952 966.878 225.151 966.381C222.379 965.861 219.608 965.892 216.863 966.481C214.108 967.085 211.521 968.201 209.102 969.83C206.698 971.451 204.716 973.417 203.147 975.734C201.593 978.044 200.529 980.598 199.947 983.382C199.36 986.166 199.336 988.903 199.869 991.611C200.398 994.303 201.458 996.826 203.049 999.19C204.615 1001.51 206.544 1003.42 208.838 1004.9C211.129 1006.39 213.687 1007.4 216.505 1007.92C219.306 1008.44 222.068 1008.4 224.821 1007.82C227.563 1007.24 230.134 1006.15 232.519 1004.54L232.519 1004.54ZM237.956 1012.6C234.574 1014.88 230.954 1016.4 227.097 1017.17C223.219 1017.93 219.297 1017.9 215.295 1017.06C211.285 1016.21 207.615 1014.66 204.289 1012.44C200.966 1010.21 198.156 1007.41 195.876 1004.03C193.565 1000.6 192 996.918 191.167 992.964C190.343 988.98 190.289 985.034 191.022 981.072C191.746 977.05 193.177 973.409 195.325 970.136C197.46 966.871 200.242 964.079 203.667 961.77C207.07 959.475 210.702 957.946 214.552 957.173C218.41 956.386 222.347 956.416 226.371 957.234C230.368 958.068 234.018 959.605 237.318 961.846C240.622 964.087 243.443 966.932 245.768 970.373C248.079 973.799 249.643 977.455 250.475 981.348C251.316 985.248 251.368 989.202 250.644 993.217C249.875 997.27 248.401 1000.94 246.244 1004.25C244.071 1007.56 241.314 1010.34 237.956 1012.6ZM222.979 1040.39L268.66 1002.05L265.215 1052.5C265.101 1053.91 264.938 1055.35 264.73 1056.85C264.522 1058.35 264.236 1059.99 263.871 1061.76L294.342 1036.2L299.885 1042.8L254.235 1081.11L257.679 1029.69C257.782 1028.31 257.942 1026.92 258.167 1025.52C258.395 1024.11 258.677 1022.72 259.045 1021.33L228.496 1046.96L222.979 1040.39ZM310.924 1091.33L327.811 1106.53C327.551 1106.82 327.193 1107.24 326.738 1107.79C325.554 1109.22 324.752 1110.17 324.314 1110.66C318.908 1116.66 313.003 1119.76 306.572 1119.98C300.156 1120.22 293.821 1117.52 287.569 1111.89C284.072 1108.74 281.426 1105.42 279.607 1101.93C277.803 1098.44 276.804 1094.73 276.617 1090.8C276.453 1086.93 277.075 1083.11 278.508 1079.37C279.921 1075.62 282.059 1072.16 284.905 1069.01C287.806 1065.79 291.027 1063.31 294.573 1061.59C298.118 1059.84 301.894 1058.91 305.922 1058.77C309.833 1058.6 313.666 1059.25 317.433 1060.7C321.183 1062.15 324.658 1064.31 327.84 1067.17C331.199 1070.19 333.644 1073.51 335.198 1077.13C336.742 1080.73 337.424 1084.73 337.227 1089.12L328.721 1088.37C328.783 1085.4 328.285 1082.7 327.218 1080.27C326.143 1077.83 324.491 1075.6 322.255 1073.59C317.645 1069.44 312.544 1067.52 306.956 1067.86C301.367 1068.19 296.444 1070.72 292.184 1075.44C287.844 1080.27 285.789 1085.49 286.016 1091.11C286.235 1096.74 288.672 1101.65 293.322 1105.84C297.287 1109.41 301.23 1111.29 305.151 1111.5C309.092 1111.69 312.479 1110.21 315.351 1107.02L315.897 1106.41L305.652 1097.19L310.922 1091.33L310.924 1091.33ZM368.215 1101.8L375.66 1107.21L355.189 1135.39C352.148 1139.57 350.829 1143.41 351.235 1146.93C351.645 1150.43 353.771 1153.58 357.61 1156.37C361.443 1159.16 365.083 1160.2 368.545 1159.5C372.014 1158.8 375.257 1156.36 378.298 1152.17L398.769 1124L406.309 1129.48L385.331 1158.36C380.77 1164.63 375.78 1168.18 370.345 1168.99C364.912 1169.81 358.996 1167.89 352.625 1163.26C346.241 1158.62 342.603 1153.6 341.707 1148.2C340.816 1142.81 342.659 1136.98 347.235 1130.68L368.215 1101.8L368.215 1101.8ZM386.486 1183.67L414.481 1131.02L430.183 1179.09C430.606 1180.43 430.996 1181.83 431.364 1183.3C431.733 1184.77 432.082 1186.4 432.41 1188.17L451.081 1153.05L458.699 1157.1L430.72 1209.72L414.65 1160.75C414.228 1159.44 413.857 1158.08 413.545 1156.71C413.226 1155.32 412.966 1153.92 412.789 1152.49L394.068 1187.7L386.486 1183.67L386.486 1183.67ZM447.647 1214.72L471.888 1162.73L480.335 1166.68L456.092 1218.66L447.646 1214.72L447.647 1214.72ZM488.368 1233.29L483.579 1168.62L492.736 1171.77L494.938 1204.85C495.067 1206.77 495.13 1208.52 495.106 1210.11C495.086 1211.69 495 1213.17 494.82 1214.56C495.62 1213.3 496.506 1212.04 497.501 1210.75C498.498 1209.45 499.595 1208.16 500.792 1206.86L522.843 1182.14L531.958 1185.27L488.368 1233.29ZM522.808 1241.77L538.618 1186.63L569.393 1195.46L567.212 1203.07L545.395 1196.81L541.434 1210.63L563.249 1216.89L560.992 1224.76L539.177 1218.5L534.068 1236.32L555.883 1242.58L553.582 1250.6L522.807 1241.77L522.808 1241.77ZM582.593 1222.35L584.251 1222.64C589.112 1223.5 592.439 1223.5 594.232 1222.65C596.027 1221.8 597.182 1219.93 597.689 1217.05C598.237 1213.94 597.767 1211.6 596.28 1210.03C594.795 1208.44 591.732 1207.25 587.109 1206.44L585.45 1206.14L582.593 1222.35ZM580.756 1229.38L576.299 1254.65L567.697 1253.14L577.658 1196.65L590.46 1198.91C594.214 1199.57 597.093 1200.34 599.075 1201.19C601.056 1202.04 602.68 1203.15 603.956 1204.54C605.465 1206.23 606.497 1208.22 607.078 1210.56C607.644 1212.88 607.702 1215.32 607.247 1217.91C606.452 1222.42 604.734 1225.77 602.096 1227.95C599.458 1230.13 595.946 1231.1 591.589 1230.86L606.51 1259.98L596.131 1258.15L581.794 1229.56L580.756 1229.38L580.756 1229.38ZM613.267 1248.86L620.974 1246.09C621.456 1248.69 622.578 1250.75 624.328 1252.25C626.088 1253.76 628.43 1254.64 631.333 1254.89C634.09 1255.13 636.356 1254.55 638.118 1253.16C639.877 1251.77 640.867 1249.79 641.093 1247.22C641.388 1243.86 638.864 1240.62 633.524 1237.51C632.774 1237.05 632.213 1236.7 631.801 1236.5C625.783 1232.87 621.827 1229.73 619.954 1227.05C618.081 1224.39 617.294 1221.25 617.606 1217.67C618.016 1213 619.93 1209.37 623.342 1206.76C626.752 1204.14 631.021 1203.07 636.149 1203.52C640.361 1203.89 643.817 1205 646.514 1206.88C649.211 1208.75 650.963 1211.27 651.788 1214.4L644.201 1217.51C643.212 1215.61 642.076 1214.2 640.775 1213.26C639.49 1212.29 637.952 1211.74 636.182 1211.59C633.691 1211.37 631.647 1211.85 630.071 1213.01C628.475 1214.19 627.594 1215.87 627.4 1218.05C627.099 1221.49 630.045 1224.97 636.248 1228.5C636.718 1228.77 637.089 1229 637.357 1229.14C642.777 1232.24 646.432 1235.14 648.336 1237.8C650.221 1240.47 651.002 1243.67 650.677 1247.39C650.204 1252.79 648.123 1256.95 644.433 1259.83C640.744 1262.72 636.009 1263.91 630.199 1263.41C625.337 1262.98 621.453 1261.51 618.53 1259C615.621 1256.49 613.863 1253.11 613.269 1248.86L613.267 1248.86ZM663.401 1264.27L665.404 1206.95L674.718 1207.27L672.716 1264.59L663.401 1264.27ZM706.56 1214.55L708.283 1263.96L698.968 1264.28L697.243 1214.87L682.007 1215.4L681.73 1207.49L721.438 1206.1L721.713 1214.02L706.56 1214.55ZM746.39 1260.59L742.734 1234.6L719.285 1206.49L728.977 1205.12L743.593 1222.73C743.953 1223.18 744.404 1223.78 744.939 1224.53C745.474 1225.26 746.032 1226.07 746.604 1226.94C746.832 1225.97 747.096 1225.07 747.38 1224.21C747.679 1223.36 747.985 1222.56 748.341 1221.82L757.89 1201.06L767.12 1199.76L751.888 1233.32L755.543 1259.31L746.39 1260.59ZM843.076 1211.6C842.281 1208.82 841.003 1206.32 839.267 1204.09C837.531 1201.88 835.444 1200.06 832.966 1198.65C830.557 1197.24 827.972 1196.38 825.234 1196.04C822.481 1195.7 819.751 1195.91 817.043 1196.69C814.328 1197.47 811.897 1198.72 809.748 1200.45C807.599 1202.18 805.84 1204.3 804.501 1206.82C803.155 1209.29 802.322 1211.93 802.039 1214.72C801.763 1217.53 802.023 1220.34 802.826 1223.14C803.622 1225.93 804.884 1228.42 806.604 1230.63C808.317 1232.82 810.421 1234.62 812.883 1236.04C815.346 1237.45 817.946 1238.32 820.684 1238.65C823.414 1238.98 826.144 1238.75 828.882 1237.97C831.566 1237.2 833.975 1235.95 836.101 1234.23C838.22 1232.51 839.979 1230.39 841.348 1227.88C842.701 1225.37 843.512 1222.73 843.81 1219.93C844.108 1217.14 843.871 1214.36 843.076 1211.6ZM852.421 1208.92C853.546 1212.84 853.874 1216.75 853.408 1220.66C852.926 1224.57 851.687 1228.3 849.661 1231.85C847.603 1235.4 845.003 1238.41 841.86 1240.89C838.717 1243.36 835.184 1245.16 831.26 1246.29C827.291 1247.43 823.299 1247.78 819.284 1247.35C815.246 1246.91 811.476 1245.73 807.935 1243.81C804.333 1241.88 801.305 1239.4 798.857 1236.34C796.418 1233.3 794.621 1229.8 793.481 1225.82C792.349 1221.87 792.013 1217.95 792.472 1214.05C792.923 1210.14 794.162 1206.4 796.181 1202.83C798.207 1199.28 800.8 1196.29 803.951 1193.84C807.102 1191.39 810.681 1189.59 814.673 1188.44C818.649 1187.3 822.611 1186.95 826.565 1187.35C830.534 1187.76 834.312 1188.93 837.906 1190.86C841.524 1192.84 844.56 1195.38 847.045 1198.46C849.515 1201.55 851.305 1205.03 852.421 1208.92ZM874.31 1231.98L853.752 1178.44L883.641 1166.96L886.486 1174.35L865.294 1182.48L870.418 1195.83L891.602 1187.7L894.539 1195.34L873.347 1203.47L883.014 1228.64L874.31 1231.98ZM934.345 1207.28L908.304 1156.17L936.83 1141.64L940.424 1148.69L920.204 1159L926.697 1171.74L946.917 1161.43L950.634 1168.72L930.406 1179.03L942.65 1203.05L934.345 1207.28ZM1001.49 1135.68C999.961 1133.23 998.049 1131.17 995.763 1129.51C993.484 1127.86 990.968 1126.69 988.207 1126.03C985.5 1125.33 982.777 1125.22 980.047 1125.64C977.309 1126.08 974.755 1127.03 972.361 1128.53C969.967 1130.02 967.971 1131.9 966.38 1134.16C964.79 1136.4 963.689 1138.93 963.092 1141.71C962.48 1144.46 962.411 1147.23 962.909 1150C963.413 1152.77 964.438 1155.39 965.983 1157.87C967.52 1160.33 969.417 1162.38 971.673 1164.03C973.921 1165.66 976.445 1166.82 979.198 1167.49C981.959 1168.17 984.697 1168.29 987.427 1167.85C990.134 1167.42 992.696 1166.45 995.113 1164.95C997.483 1163.46 999.457 1161.6 1001.02 1159.36C1002.58 1157.12 1003.69 1154.6 1004.31 1151.8C1004.92 1149.02 1004.98 1146.25 1004.5 1143.49C1004.01 1140.72 1003.01 1138.12 1001.49 1135.68ZM1009.73 1130.53C1011.9 1133.99 1013.29 1137.66 1013.92 1141.54C1014.55 1145.44 1014.38 1149.36 1013.4 1153.33C1012.4 1157.3 1010.74 1160.92 1008.4 1164.17C1006.06 1167.41 1003.16 1170.12 999.701 1172.28C996.199 1174.47 992.459 1175.91 988.475 1176.6C984.475 1177.29 980.521 1177.2 976.59 1176.33C972.598 1175.47 969.004 1173.92 965.807 1171.65C962.626 1169.4 959.926 1166.53 957.739 1163.02C955.559 1159.54 954.16 1155.86 953.525 1151.98C952.875 1148.1 953.035 1144.17 953.991 1140.17C954.97 1136.21 956.637 1132.61 958.985 1129.39C961.341 1126.16 964.285 1123.45 967.811 1121.25C971.313 1119.05 975.022 1117.62 978.938 1116.93C982.869 1116.22 986.815 1116.31 990.807 1117.17C994.83 1118.08 998.447 1119.69 1001.68 1121.95C1004.91 1124.24 1007.59 1127.09 1009.73 1130.53ZM1021.73 1114.82L1023 1113.71C1026.73 1110.47 1028.82 1107.89 1029.29 1105.97C1029.76 1104.03 1029.04 1101.97 1027.12 1099.75C1025.05 1097.37 1022.93 1096.27 1020.77 1096.43C1018.61 1096.59 1015.75 1098.22 1012.21 1101.3L1010.94 1102.4L1021.73 1114.82ZM1026.05 1120.67L1042.88 1140.04L1036.29 1145.77L998.661 1102.48L1008.47 1093.95C1011.35 1091.45 1013.75 1089.7 1015.66 1088.69C1017.57 1087.69 1019.46 1087.13 1021.34 1087.02C1023.6 1086.9 1025.8 1087.35 1027.98 1088.37C1030.15 1089.39 1032.08 1090.89 1033.8 1092.87C1036.81 1096.32 1038.33 1099.77 1038.37 1103.19C1038.39 1106.61 1036.94 1109.94 1034.01 1113.19L1066.04 1119.92L1058.08 1126.83L1026.84 1119.98L1026.05 1120.67ZM1072.68 1114.31L1033.56 1072.35L1056.97 1050.52L1062.37 1056.31L1045.77 1071.79L1055.58 1082.3L1072.17 1066.83L1077.75 1072.81L1061.16 1088.29L1073.8 1101.85L1090.39 1086.37L1096.08 1092.48L1072.68 1114.31ZM1106.58 1082.42L1063.29 1044.78L1069.41 1037.75L1112.7 1075.38L1106.58 1082.42ZM1121.12 1019.93L1135.11 1002.03C1135.42 1002.26 1135.85 1002.59 1136.43 1003.01C1137.94 1004.09 1138.95 1004.83 1139.46 1005.22C1145.83 1010.2 1149.34 1015.88 1150.01 1022.27C1150.69 1028.66 1148.44 1035.16 1143.26 1041.79C1140.36 1045.5 1137.24 1048.37 1133.88 1050.44C1130.52 1052.48 1126.89 1053.73 1122.98 1054.19C1119.13 1054.63 1115.29 1054.27 1111.44 1053.11C1107.6 1051.95 1104.01 1050.06 1100.66 1047.45C1097.25 1044.78 1094.55 1041.73 1092.58 1038.31C1090.6 1034.9 1089.41 1031.2 1088.99 1027.2C1088.55 1023.3 1088.92 1019.43 1090.1 1015.57C1091.29 1011.73 1093.2 1008.11 1095.83 1004.74C1098.62 1001.18 1101.76 998.509 1105.25 996.704C1108.74 994.915 1112.68 993.959 1117.08 993.844L1116.92 1002.39C1113.96 1002.53 1111.3 1003.21 1108.95 1004.45C1106.58 1005.69 1104.48 1007.49 1102.63 1009.87C1098.81 1014.75 1097.26 1019.98 1097.97 1025.53C1098.7 1031.08 1101.57 1035.81 1106.58 1039.73C1111.69 1043.73 1117.05 1045.41 1122.64 1044.79C1128.24 1044.18 1132.97 1041.41 1136.82 1036.48C1140.11 1032.27 1141.7 1028.2 1141.63 1024.28C1141.56 1020.34 1139.84 1017.06 1136.46 1014.42L1135.81 1013.92L1127.33 1024.78L1121.12 1019.93ZM1166.36 1008.79L1114.71 978.969L1163.29 964.951C1164.65 964.576 1166.07 964.24 1167.55 963.919C1169.04 963.597 1170.67 963.307 1172.45 963.047L1138.01 943.163L1142.32 935.691L1193.94 965.486L1144.43 979.833C1143.1 980.216 1141.74 980.537 1140.36 980.805C1138.95 981.072 1137.54 981.279 1136.11 981.409L1170.65 1001.35L1166.36 1008.79ZM1196.44 930.575L1196.32 922.384C1198.95 922.774 1201.25 922.384 1203.24 921.222C1205.24 920.044 1206.83 918.117 1208.02 915.455C1209.14 912.924 1209.33 910.599 1208.59 908.481C1207.85 906.362 1206.29 904.779 1203.94 903.731C1200.86 902.362 1196.97 903.686 1192.29 907.724C1191.62 908.289 1191.11 908.702 1190.78 909.024C1185.39 913.536 1181.13 916.251 1177.99 917.153C1174.87 918.056 1171.64 917.78 1168.35 916.32C1164.08 914.415 1161.27 911.417 1159.9 907.341C1158.54 903.265 1158.92 898.883 1161.01 894.18C1162.73 890.317 1164.91 887.411 1167.57 885.469C1170.21 883.534 1173.17 882.693 1176.39 882.93L1176.87 891.12C1174.75 891.434 1173.04 892.053 1171.72 892.971C1170.4 893.874 1169.37 895.151 1168.65 896.772C1167.64 899.059 1167.42 901.147 1168.01 903.013C1168.6 904.902 1169.91 906.293 1171.91 907.181C1175.06 908.588 1179.31 906.936 1184.66 902.217C1185.08 901.865 1185.41 901.582 1185.64 901.376C1190.33 897.262 1194.25 894.745 1197.39 893.812C1200.54 892.902 1203.81 893.208 1207.21 894.722C1212.18 896.933 1215.43 900.252 1216.96 904.68C1218.49 909.108 1218.07 913.972 1215.7 919.302C1213.71 923.761 1211.06 926.957 1207.74 928.9C1204.41 930.835 1200.65 931.401 1196.44 930.575ZM1186.72 855.758L1233.75 871.038L1230.87 879.901L1183.85 864.621L1179.14 879.121L1171.6 876.674L1183.88 838.888L1191.41 841.335L1186.72 855.758ZM1186.2 832.219L1188.58 823.332L1222.22 832.341C1227.22 833.68 1231.28 833.534 1234.42 831.898C1237.54 830.261 1239.72 827.141 1240.95 822.56C1242.17 817.987 1241.84 814.216 1239.95 811.234C1238.06 808.243 1234.61 806.094 1229.62 804.748L1195.98 795.74L1198.39 786.731L1232.87 795.969C1240.36 797.98 1245.46 801.368 1248.17 806.148C1250.87 810.928 1251.2 817.138 1249.17 824.747C1247.13 832.372 1243.74 837.565 1239.02 840.333C1234.31 843.102 1228.2 843.469 1220.68 841.457L1186.2 832.219ZM1250.05 774.716L1250.88 766.923C1251.33 762.64 1251.39 759.393 1251.04 757.192C1250.69 754.99 1249.92 753.027 1248.74 751.289C1247.12 748.939 1245 747.09 1242.38 745.725C1239.75 744.359 1236.61 743.478 1232.97 743.095C1229.34 742.714 1226.09 742.924 1223.23 743.716C1220.38 744.503 1217.93 745.872 1215.85 747.832C1214.34 749.3 1213.16 751.14 1212.35 753.315C1211.55 755.502 1210.9 758.997 1210.39 763.772L1210.04 767.122L1209.69 770.479L1250.05 774.716ZM1257.47 784.865L1200.41 778.869L1201.73 766.373C1202.59 758.233 1203.6 752.555 1204.76 749.33C1205.94 746.104 1207.61 743.348 1209.79 741.049C1212.66 738.018 1216.15 735.857 1220.28 734.569C1224.41 733.283 1229.01 732.904 1234.06 733.435C1239.13 733.966 1243.54 735.291 1247.27 737.404C1251 739.517 1253.95 742.357 1256.17 745.923C1257.82 748.627 1258.89 751.603 1259.38 754.868C1259.85 758.146 1259.74 763.137 1259.04 769.867L1258.78 772.368L1257.47 784.865ZM1264.1 722.102L1206.88 718.1L1207.53 708.802L1264.75 712.804L1264.1 722.102ZM1265.4 695.767L1208.05 694.765L1208.6 662.755L1216.52 662.894L1216.12 685.585L1230.5 685.836L1230.89 663.144L1239.07 663.287L1238.68 685.98L1257.21 686.303L1257.61 663.61L1265.95 663.755L1265.4 695.768L1265.4 695.767ZM1253.35 653.529L1249.27 646.423C1251.76 645.493 1253.6 644.031 1254.77 642.05C1255.94 640.054 1256.4 637.595 1256.14 634.693C1255.91 631.935 1254.94 629.804 1253.27 628.31C1251.59 626.819 1249.47 626.188 1246.9 626.413C1243.54 626.706 1240.79 629.752 1238.64 635.552C1238.33 636.372 1238.09 636.983 1237.96 637.424C1235.42 643.981 1233.02 648.419 1230.71 650.731C1228.42 653.038 1225.46 654.359 1221.87 654.673C1217.22 655.078 1213.31 653.826 1210.13 650.92C1206.97 648.016 1205.16 643.998 1204.72 638.87C1204.35 634.658 1204.86 631.057 1206.23 628.076C1207.61 625.097 1209.78 622.934 1212.73 621.576L1217.1 628.507C1215.4 629.812 1214.21 631.178 1213.5 632.622C1212.78 634.055 1212.5 635.663 1212.66 637.434C1212.88 639.928 1213.71 641.855 1215.13 643.208C1216.56 644.571 1218.37 645.15 1220.56 644.96C1223.99 644.661 1226.91 641.155 1229.3 634.437C1229.5 633.923 1229.65 633.52 1229.74 633.23C1231.86 627.353 1234.07 623.253 1236.36 620.916C1238.67 618.594 1241.68 617.27 1245.4 616.945C1250.8 616.472 1255.26 617.801 1258.74 620.932C1262.22 624.066 1264.23 628.521 1264.73 634.329C1265.16 639.193 1264.39 643.273 1262.42 646.588C1260.46 649.888 1257.43 652.205 1253.35 653.53L1253.35 653.529Z" fill-rule="evenodd"  fill="#ED1C24" >
</path>
<path d="M681.999 0C1058.59 0 1364 305.406 1364 682.001C1364 1058.6 1058.59 1364 681.999 1364C305.405 1364 0 1058.6 0 682.001C0 305.408 305.405 0 681.999 0ZM681.999 236.577C740.383 236.577 796.142 247.826 847.236 268.262C802.062 304.775 744.588 326.657 681.999 326.657C619.41 326.657 561.933 304.773 516.764 268.262C567.859 247.827 623.615 236.577 681.999 236.577ZM883.249 284.56C925.885 306.206 964.589 334.502 997.964 368.095C987.203 381.124 975.655 393.481 963.389 405.085C935.459 363.616 901.381 328.44 862.845 301.579C869.896 296.207 876.703 290.523 883.249 284.56ZM1022.37 394.762C1082.33 465.739 1120.49 555.711 1126.54 654.354L1044.09 654.354C1039.94 573.829 1017.82 499.193 982.538 436.22C996.686 423.273 1009.99 409.416 1022.37 394.762ZM1127.32 690.197C1122.93 932.365 925.212 1127.42 681.999 1127.42C438.783 1127.42 241.064 932.365 236.682 690.197L319.266 690.197C322.119 857.945 409.195 1001.73 533.327 1066.69C582.265 1019.62 631.209 972.561 680.148 925.497C729.515 972.966 778.882 1020.44 828.255 1067.92C953.668 1003.57 1041.86 859.039 1044.73 690.197L1127.32 690.197ZM237.456 654.354C243.502 555.711 281.667 465.746 341.616 394.766C353.999 409.42 367.299 423.271 381.446 436.213C346.162 499.186 324.053 573.829 319.912 654.354L237.456 654.354ZM366.034 368.097C399.402 334.502 438.104 306.203 480.743 284.561C487.287 290.523 494.09 296.209 501.147 301.579C462.609 328.443 428.539 363.62 400.603 405.089C388.337 393.485 376.793 381.126 366.034 368.097ZM808.057 690.197L555.939 690.197C557.099 764.543 573.414 831.003 598.715 876.912L680.148 798.607L763.992 879.229C790.032 833.259 806.88 765.806 808.057 690.197ZM755.258 353.462C782.522 384.97 805.335 433.496 820.997 492.889C863.013 477.725 901.84 455.883 936.194 428.647C907.492 384.963 871.525 348.827 830.564 323.017C807.254 336.399 781.971 346.731 755.258 353.462ZM829.172 528.028C837.057 566.951 842.051 609.539 843.512 654.354L1008.19 654.354C1004.24 582.705 985.093 516.2 954.686 459.684C917.159 488.785 874.859 512.026 829.172 528.028ZM520.484 654.354C521.945 609.539 526.933 566.953 534.822 528.028C489.126 512.026 446.832 488.787 409.306 459.684C378.9 516.202 359.747 582.707 355.806 654.354L520.484 654.354ZM542.986 492.889C558.645 433.501 581.459 384.969 608.711 353.457C582.001 346.727 556.726 336.396 533.42 323.017C492.457 348.824 456.497 384.963 427.79 428.645C462.146 455.881 500.969 477.722 542.986 492.889ZM714.609 360.749C745.412 382.437 771.578 434.093 788.334 503.147C754.421 512.246 718.778 517.098 681.999 517.098C645.22 517.098 609.569 512.246 575.658 503.15C592.408 434.095 618.576 382.437 649.382 360.75C660.093 361.913 670.977 362.504 681.999 362.504C693.021 362.504 703.899 361.91 714.609 360.748L714.609 360.749ZM795.752 538.262C802.245 573.901 806.39 613.059 807.683 654.354L556.308 654.354C557.596 613.059 561.747 573.901 568.237 538.264C604.553 547.837 642.681 552.936 681.999 552.936C721.317 552.936 759.443 547.835 795.752 538.262ZM681.999 34.4443C1039.57 34.4443 1329.56 324.426 1329.56 682C1329.56 1039.58 1039.57 1329.55 681.999 1329.55C324.425 1329.55 34.445 1039.58 34.445 682.001C34.445 324.428 324.427 34.4443 681.999 34.4443Z" fill-rule="evenodd"  fill="#004E96" >
</path>
</g>
<defs>
<clipPath id="clip-path-SlO0D22N2jNYSDlxTa8tX">
<path d="M0 1364L1364 1364L1364 0L0 0L0 1364Z" fill="white"/>
</clipPath>
</defs>
</svg>
